
<svg width="100%" height="100%" viewBox="0 0 24 22" version="1.1" style="fill-rule:evenodd;clip-rule:evenodd;stroke-linejoin:round;stroke-miterlimit:2;">
    <g transform="matrix(1,0,0,0.879724,0,0)">
        <rect id="Artboard1" x="0" y="0" width="24" height="24" style="fill:none;"/>
        <g id="Artboard11">
            <g transform="matrix(0.00209371,-0.394766,0.347285,0.00237996,-103.171,941.576)">
                <circle cx="2346.95" cy="317.457" r="4.742"/>
                <g transform="matrix(1,0,0,1,11.6273,0.135937)">
                    <path d="M2346.95,312.715C2349.57,312.715 2375.22,314.84 2375.22,317.457C2375.22,320.075 2349.57,322.2 2346.95,322.2C2344.33,322.2 2342.21,320.075 2342.21,317.457C2342.21,314.84 2344.33,312.715 2346.95,312.715Z"/>
                </g>
                <g transform="matrix(-0.5,0.866025,-0.866025,-0.5,3789.51,-1546.27)">
                    <path d="M2346.95,312.715C2349.57,312.715 2375.22,314.84 2375.22,317.457C2375.22,320.075 2349.57,322.2 2346.95,322.2C2344.33,322.2 2342.21,320.075 2342.21,317.457C2342.21,314.84 2344.33,312.715 2346.95,312.715Z"/>
                </g>
                <g transform="matrix(-0.5,-0.866025,0.866025,-0.5,3239.2,2499.03)">
                    <path d="M2346.95,312.715C2349.57,312.715 2375.22,314.84 2375.22,317.457C2375.22,320.075 2349.57,322.2 2346.95,322.2C2344.33,322.2 2342.21,320.075 2342.21,317.457C2342.21,314.84 2344.33,312.715 2346.95,312.715Z"/>
                </g>
            </g>
        </g>
    </g>
</svg>
