<svg width="100%" height="100%" viewBox="0 0 31 24" version="1.1" xmlns="http://www.w3.org/2000/svg" style="fill-rule:evenodd;clip-rule:evenodd;stroke-linejoin:round;stroke-miterlimit:2;">
    <g transform="matrix(1.25121,0,0,1,0,0)">
        <g clip-path="url(#_clip1)">
            <g transform="matrix(1.08639,0,0,1.3593,-9.74601,-5.01032)">
                <path d="M11,9.675L9,9.675L12,3.675L15,9.675L13,9.675L13,20.325C13,20.877 12.552,21.325 12,21.325C11.448,21.325 11,20.877 11,20.325L11,9.675Z" style="fill:rgb(33,127,241);"/>
            </g>
            <g transform="matrix(1.08639,0,0,1.3593,-1.03587,-5.01032)">
                <path d="M11,9.675L9,9.675L12,3.675L15,9.675L13,9.675L13,20.325C13,20.877 12.552,21.325 12,21.325C11.448,21.325 11,20.877 11,20.325L11,9.675Z" style="fill:rgb(33,127,241);"/>
            </g>
            <g transform="matrix(1.08639,0,0,1.3593,7.67427,-5.01032)">
                <path d="M11,9.675L9,9.675L12,3.675L15,9.675L13,9.675L13,20.325C13,20.877 12.552,21.325 12,21.325C11.448,21.325 11,20.877 11,20.325L11,9.675Z" style="fill:rgb(33,127,241);"/>
            </g>
        </g>
    </g>
</svg>
