<svg width="100%" height="100%" viewBox="0 0 51 13" version="1.1" xmlns="http://www.w3.org/2000/svg" style="fill-rule:evenodd;clip-rule:evenodd;stroke-linejoin:round;stroke-miterlimit:2;">
    <g transform="matrix(2.08487,0,0,0.505772,0,0)">
        <g clip-path="url(#_clip1)">
            <g transform="matrix(0.479645,0,0,1.97718,0,0)">
                <path d="M21.728,4.157L13.48,4.157C12.56,4.157 0.023,3.598 0.023,2.909C0.023,2.221 12.173,1.642 15.996,1.662C18.038,1.673 20.001,2.629 21.884,2.937C22.308,1.267 23.552,0.056 25.018,0.056C26.489,0.056 27.735,1.273 28.157,2.951C30.061,2.659 32.047,1.673 34.115,1.662C37.926,1.642 50.04,2.221 50.04,2.909C50.04,3.598 37.541,4.157 36.623,4.157L28.309,4.157C28.309,4.159 28.309,4.161 28.309,4.163L21.728,4.163C21.728,4.161 21.728,4.159 21.728,4.157Z"/>
            </g>
            <g transform="matrix(0.479645,0,0,2.01197,1.44996,6.0982)">
                <rect x="19" y="2.859" width="5.991" height="5.931"/>
            </g>
        </g>
    </g>
</svg>
